<svg xmlns="http://www.w3.org/2000/svg" xmlns:xlink="http://www.w3.org/1999/xlink" width="216" height="40" viewBox="0 0 216 40"><defs><linearGradient id="a" x1="20" x2="20" y2="38.042" gradientUnits="userSpaceOnUse"><stop offset="0" stop-color="#fbcf3a"/><stop offset="1" stop-color="#f9bf04"/></linearGradient><linearGradient id="b" x1="64" x2="64" y2="38.042" xlink:href="#a"/><linearGradient id="c" x1="108" x2="108" y2="38.042" xlink:href="#a"/><linearGradient id="d" x1="152" x2="152" y2="38.042" xlink:href="#a"/><linearGradient id="e" x1="196" x2="196" y2="38.042" xlink:href="#a"/></defs><title>icon-stars-40-dark</title><polygon points="20 0 26.18 12.523 40 14.531 30 24.278 32.361 38.042 20 31.544 7.639 38.042 10 24.278 0 14.531 13.82 12.523 20 0" fill="url(#a)"/><polygon points="64 0 70.18 12.523 84 14.531 74 24.278 76.361 38.042 64 31.544 51.639 38.042 54 24.278 44 14.531 57.82 12.523 64 0" fill="url(#b)"/><polygon points="108 0 114.18 12.523 128 14.531 118 24.278 120.361 38.042 108 31.544 95.639 38.042 98 24.278 88 14.531 101.82 12.523 108 0" fill="url(#c)"/><polygon points="152 0 158.18 12.523 172 14.531 162 24.278 164.361 38.042 152 31.544 139.639 38.042 142 24.278 132 14.531 145.82 12.523 152 0" fill="url(#d)"/><polygon points="196 0 202.18 12.523 216 14.531 206 24.278 208.361 38.042 196 31.544 183.639 38.042 186 24.278 176 14.531 189.82 12.523 196 0" fill="url(#e)"/></svg>