<svg xmlns="http://www.w3.org/2000/svg" width="128" height="24" viewBox="0 0 128 24"><title>icon-stars-24-background</title><g opacity="0.2"><polygon points="12 0 15.708 7.514 24 8.719 18 14.567 19.416 22.825 12 18.926 4.584 22.825 6 14.567 0 8.719 8.292 7.514 12 0"/></g><g opacity="0.2"><polygon points="38 0 41.708 7.514 50 8.719 44 14.567 45.416 22.825 38 18.926 30.584 22.825 32 14.567 26 8.719 34.292 7.514 38 0"/></g><g opacity="0.2"><polygon points="64 0 67.708 7.514 76 8.719 70 14.567 71.416 22.825 64 18.926 56.584 22.825 58 14.567 52 8.719 60.292 7.514 64 0"/></g><g opacity="0.2"><polygon points="90 0 93.708 7.514 102 8.719 96 14.567 97.416 22.825 90 18.926 82.584 22.825 84 14.567 78 8.719 86.292 7.514 90 0"/></g><g opacity="0.2"><polygon points="116 0 119.708 7.514 128 8.719 122 14.567 123.416 22.825 116 18.926 108.584 22.825 110 14.567 104 8.719 112.292 7.514 116 0"/></g></svg>