<svg xmlns="http://www.w3.org/2000/svg" xmlns:xlink="http://www.w3.org/1999/xlink" width="216" height="40" viewBox="0 0 216 40"><defs><linearGradient id="a" x1="20" y1="1.13" x2="20" y2="37.128" gradientUnits="userSpaceOnUse"><stop offset="0" stop-color="#fbcf3a"/><stop offset="1" stop-color="#f9bf04"/></linearGradient><linearGradient id="b" x1="64" y1="1.13" x2="64" y2="37.128" xlink:href="#a"/><linearGradient id="c" x1="108" y1="1.13" x2="108" y2="37.128" xlink:href="#a"/><linearGradient id="d" x1="152" y1="1.13" x2="152" y2="37.128" xlink:href="#a"/><linearGradient id="e" x1="196" y1="1.13" x2="196" y2="37.128" xlink:href="#a"/></defs><title>icon-stars-40</title><polygon points="20 30.979 8.303 37.128 10.537 24.104 1.075 14.88 14.152 12.979 20 1.13 25.848 12.979 38.925 14.88 29.463 24.104 31.697 37.128 20 30.979" fill="url(#a)"/><path d="M20,2.26l5.284,10.705.232.472.521.075,11.814,1.717L29.3,23.562l-.376.367.088.518,2.019,11.767L20.465,30.659,20,30.414l-.465.245L8.967,36.214l2.019-11.767.088-.518-.376-.367L2.149,15.229l11.814-1.717.521-.075.232-.472L20,2.26M20,0,13.82,12.523,0,14.531l10,9.747L7.639,38.042,20,31.544l12.361,6.5L30,24.278l10-9.747L26.18,12.523,20,0Z" fill="#eaad25"/><polygon points="64 30.979 52.303 37.128 54.537 24.104 45.075 14.88 58.152 12.979 64 1.13 69.848 12.979 82.925 14.88 73.463 24.104 75.697 37.128 64 30.979" fill="url(#b)"/><path d="M64,2.26l5.284,10.705.232.472.521.075,11.814,1.717L73.3,23.562l-.376.367.088.518,2.019,11.767L64.465,30.659,64,30.414l-.465.245L52.967,36.214l2.019-11.767.088-.518-.376-.367-8.549-8.333,11.814-1.717.521-.075.232-.472L64,2.26M64,0,57.82,12.523,44,14.531l10,9.747L51.639,38.042,64,31.544l12.361,6.5L74,24.278l10-9.747L70.18,12.523,64,0Z" fill="#eaad25"/><polygon points="108 30.979 96.303 37.128 98.537 24.104 89.075 14.88 102.152 12.979 108 1.13 113.848 12.979 126.925 14.88 117.463 24.104 119.697 37.128 108 30.979" fill="url(#c)"/><path d="M108,2.26l5.284,10.705.232.472.521.075,11.814,1.717L117.3,23.562l-.376.367.088.518,2.019,11.767-10.568-5.555L108,30.414l-.465.245L96.967,36.214l2.019-11.767.088-.518-.376-.367-8.549-8.333,11.814-1.717.521-.075.232-.472L108,2.26M108,0l-6.18,12.523L88,14.531l10,9.747L95.639,38.042,108,31.544l12.361,6.5L118,24.278l10-9.747-13.82-2.008L108,0Z" fill="#eaad25"/><polygon points="152 30.979 140.303 37.128 142.537 24.104 133.075 14.88 146.152 12.979 152 1.13 157.848 12.979 170.925 14.88 161.463 24.104 163.697 37.128 152 30.979" fill="url(#d)"/><path d="M152,2.26l5.284,10.705.232.472.521.075,11.814,1.717L161.3,23.562l-.376.367.088.518,2.019,11.767-10.568-5.555L152,30.414l-.465.245-10.568,5.555,2.019-11.767.088-.518-.376-.367-8.549-8.333,11.814-1.717.521-.075.232-.472L152,2.26M152,0l-6.18,12.523L132,14.531l10,9.747-2.361,13.764L152,31.544l12.361,6.5L162,24.278l10-9.747-13.82-2.008L152,0Z" fill="#eaad25"/><polygon points="196 30.979 184.303 37.128 186.537 24.104 177.075 14.88 190.152 12.979 196 1.13 201.848 12.979 214.926 14.88 205.463 24.104 207.697 37.128 196 30.979" fill="url(#e)"/><path d="M196,2.26l5.284,10.705.232.472.521.075,11.814,1.717L205.3,23.562l-.376.367.088.518,2.019,11.767-10.568-5.555L196,30.414l-.465.245-10.568,5.555,2.019-11.767.088-.518-.376-.367-8.549-8.333,11.814-1.717.521-.075.232-.472L196,2.26M196,0l-6.18,12.523L176,14.531l10,9.747-2.361,13.764L196,31.544l12.361,6.5L206,24.278l10-9.747-13.82-2.008L196,0Z" fill="#eaad25"/></svg>