<svg xmlns="http://www.w3.org/2000/svg" viewBox="0 0 117.25 99.46"><g data-name="Layer 2"><path fill="#357dcc" d="M109.43 17.72C94.83 42 80.94 67 59.34 85.84c-17.11 15.36-44.15 22.42-55.06-4.48A74.46 74.46 0 01.37 64.64c-.23-1.89-1.29-5 1.73-5.24 2.7-.22 2.14 2.8 2.31 4.62 3.8 46.57 41.3 33.93 63.13 7.25a269.41 269.41 0 0037.91-56.55c.56-1.1 1.72-2.13.84-3.9-4.35 2.5-8.61 5.14-13.45 6.57-1.37.41-2.79.89-3.26-.84-.34-1.21.72-2.05 2-2.45 8-2.64 14.75-7.28 20.75-13.08a2.75 2.75 0 013.18-.77c1.19.68.74 2 .36 3.14-2.9 8.19-1.68 16.25.83 24.23.58 1.86 1.33 3.7-1 4.6-2.72 1.08-2.89-1.44-3.34-3-1.06-3.77-1.94-7.56-2.93-11.5z" data-name="Layer 1"/></g></svg>