<svg xmlns="http://www.w3.org/2000/svg" xmlns:xlink="http://www.w3.org/1999/xlink" width="176" height="32" viewBox="0 0 176 32"><defs><linearGradient id="a" x1="16" x2="16" y2="30.434" gradientUnits="userSpaceOnUse"><stop offset="0" stop-color="#fbcf3a"/><stop offset="1" stop-color="#f9bf04"/></linearGradient><linearGradient id="b" x1="52" x2="52" y2="30.434" xlink:href="#a"/><linearGradient id="c" x1="88" x2="88" y2="30.434" xlink:href="#a"/><linearGradient id="d" x1="124" x2="124" y2="30.434" xlink:href="#a"/><linearGradient id="e" x1="160" x2="160" y2="30.434" xlink:href="#a"/></defs><title>icon-stars-32-dark</title><polygon points="16 0 20.944 10.018 32 11.625 24 19.423 25.889 30.434 16 25.235 6.111 30.434 8 19.423 0 11.625 11.056 10.018 16 0" fill="url(#a)"/><polygon points="52 0 56.944 10.018 68 11.625 60 19.423 61.889 30.434 52 25.235 42.111 30.434 44 19.423 36 11.625 47.056 10.018 52 0" fill="url(#b)"/><polygon points="88 0 92.944 10.018 104 11.625 96 19.423 97.889 30.434 88 25.235 78.111 30.434 80 19.423 72 11.625 83.056 10.018 88 0" fill="url(#c)"/><polygon points="124 0 128.944 10.018 140 11.625 132 19.423 133.889 30.434 124 25.235 114.111 30.434 116 19.423 108 11.625 119.056 10.018 124 0" fill="url(#d)"/><polygon points="160 0 164.944 10.018 176 11.625 168 19.423 169.889 30.434 160 25.235 150.111 30.434 152 19.423 144 11.625 155.056 10.018 160 0" fill="url(#e)"/></svg>