<svg xmlns="http://www.w3.org/2000/svg" width="84" height="16" viewBox="0 0 84 16"><title>icon-stars-16-background</title><g opacity="0.2"><polygon points="8 0 10.472 5.009 16 5.812 12 9.711 12.944 15.217 8 12.618 3.056 15.217 4 9.711 0 5.812 5.528 5.009 8 0"/></g><g opacity="0.2"><polygon points="25 0 27.472 5.009 33 5.812 29 9.711 29.944 15.217 25 12.618 20.056 15.217 21 9.711 17 5.812 22.528 5.009 25 0"/></g><g opacity="0.2"><polygon points="42 0 44.472 5.009 50 5.812 46 9.711 46.944 15.217 42 12.618 37.056 15.217 38 9.711 34 5.812 39.528 5.009 42 0"/></g><g opacity="0.2"><polygon points="59 0 61.472 5.009 67 5.812 63 9.711 63.944 15.217 59 12.618 54.056 15.217 55 9.711 51 5.812 56.528 5.009 59 0"/></g><g opacity="0.2"><polygon points="76 0 78.472 5.009 84 5.812 80 9.711 80.944 15.217 76 12.618 71.056 15.217 72 9.711 68 5.812 73.528 5.009 76 0"/></g></svg>