<svg xmlns="http://www.w3.org/2000/svg" xmlns:xlink="http://www.w3.org/1999/xlink" width="84" height="16" viewBox="0 0 84 16"><defs><linearGradient id="a" x1="8" y1="1.13" x2="8" y2="14.303" gradientUnits="userSpaceOnUse"><stop offset="0" stop-color="#fbcf3a"/><stop offset="1" stop-color="#f9bf04"/></linearGradient><linearGradient id="b" x1="25" y1="1.13" x2="25" y2="14.303" xlink:href="#a"/><linearGradient id="c" x1="42" y1="1.13" x2="42" y2="14.303" xlink:href="#a"/><linearGradient id="d" x1="59" y1="1.13" x2="59" y2="14.303" xlink:href="#a"/><linearGradient id="e" x1="76" y1="1.13" x2="76" y2="14.303" xlink:href="#a"/></defs><title>icon-stars-16</title><polygon points="8 12.053 3.72 14.303 4.537 9.537 1.075 6.162 5.86 5.466 8 1.13 10.14 5.466 14.925 6.162 11.463 9.537 12.28 14.303 8 12.053" fill="url(#a)"/><path d="M8,2.26,9.575,5.452l.233.471.52.076,3.523.512L11.3,8.995l-.376.367.088.518.6,3.509L8.465,11.732,8,11.488l-.465.244L4.384,13.389l.6-3.509.088-.518L4.7,8.995,2.149,6.511,5.672,6l.52-.076.233-.471L8,2.26M8,0,5.528,5.009,0,5.812l4,3.9-.944,5.506L8,12.618l4.944,2.6L12,9.711l4-3.9-5.528-.8L8,0Z" fill="#eaad25"/><polygon points="25 12.053 20.72 14.303 21.537 9.537 18.075 6.162 22.86 5.466 25 1.13 27.14 5.466 31.925 6.162 28.463 9.537 29.28 14.303 25 12.053" fill="url(#b)"/><path d="M25,2.26l1.575,3.192.233.471.52.076,3.523.512L28.3,8.995l-.376.367.088.518.6,3.509-3.151-1.657L25,11.488l-.465.244-3.151,1.657.6-3.509.088-.518L21.7,8.995,19.149,6.511,22.672,6l.52-.076.233-.471L25,2.26M25,0,22.528,5.009,17,5.812l4,3.9-.944,5.506L25,12.618l4.944,2.6L29,9.711l4-3.9-5.528-.8L25,0Z" fill="#eaad25"/><polygon points="42 12.053 37.72 14.303 38.537 9.537 35.075 6.162 39.86 5.466 42 1.13 44.14 5.466 48.925 6.162 45.463 9.537 46.28 14.303 42 12.053" fill="url(#c)"/><path d="M42,2.26l1.575,3.192.233.471.52.076,3.523.512L45.3,8.995l-.376.367.088.518.6,3.509-3.151-1.657L42,11.488l-.465.244-3.151,1.657.6-3.509.088-.518L38.7,8.995,36.149,6.511,39.672,6l.52-.076.233-.471L42,2.26M42,0,39.528,5.009,34,5.812l4,3.9-.944,5.506L42,12.618l4.944,2.6L46,9.711l4-3.9-5.528-.8L42,0Z" fill="#eaad25"/><polygon points="59 12.053 54.72 14.303 55.537 9.537 52.075 6.162 56.86 5.466 59 1.13 61.14 5.466 65.925 6.162 62.463 9.537 63.28 14.303 59 12.053" fill="url(#d)"/><path d="M59,2.26l1.575,3.192.233.471.52.076,3.523.512L62.3,8.995l-.376.367.088.518.6,3.509-3.151-1.657L59,11.488l-.465.244-3.151,1.657.6-3.509.088-.518L55.7,8.995,53.149,6.511,56.672,6l.52-.076.233-.471L59,2.26M59,0,56.528,5.009,51,5.812l4,3.9-.944,5.506L59,12.618l4.944,2.6L63,9.711l4-3.9-5.528-.8L59,0Z" fill="#eaad25"/><polygon points="76 12.053 71.72 14.303 72.537 9.537 69.075 6.162 73.86 5.466 76 1.13 78.14 5.466 82.925 6.162 79.463 9.537 80.28 14.303 76 12.053" fill="url(#e)"/><path d="M76,2.26l1.575,3.192.233.471.52.076,3.523.512L79.3,8.995l-.376.367.088.518.6,3.509-3.151-1.657L76,11.488l-.465.244-3.151,1.657.6-3.509.088-.518L72.7,8.995,70.149,6.511,73.672,6l.52-.076.233-.471L76,2.26M76,0,73.528,5.009,68,5.812l4,3.9-.944,5.506L76,12.618l4.944,2.6L80,9.711l4-3.9-5.528-.8L76,0Z" fill="#eaad25"/></svg>