<svg xmlns="http://www.w3.org/2000/svg" xmlns:xlink="http://www.w3.org/1999/xlink" width="176" height="32" viewBox="0 0 176 32"><defs><linearGradient id="a" x1="16" y1="1.13" x2="16" y2="29.52" gradientUnits="userSpaceOnUse"><stop offset="0" stop-color="#fbcf3a"/><stop offset="1" stop-color="#f9bf04"/></linearGradient><linearGradient id="b" x1="52" y1="1.13" x2="52" y2="29.52" xlink:href="#a"/><linearGradient id="c" x1="88" y1="1.13" x2="88" y2="29.52" xlink:href="#a"/><linearGradient id="d" x1="124" y1="1.13" x2="124" y2="29.52" xlink:href="#a"/><linearGradient id="e" x1="160" y1="1.13" x2="160" y2="29.52" xlink:href="#a"/></defs><title>icon-stars-32</title><polygon points="16 24.671 6.775 29.52 8.537 19.248 1.075 11.974 11.388 10.476 16 1.13 20.612 10.476 30.925 11.974 23.463 19.248 25.225 29.52 16 24.671" fill="url(#a)"/><path d="M16,2.26l4.048,8.2.232.471.52.076,9.051,1.315L23.3,18.707l-.376.367.088.518,1.546,9.014L16.465,24.35,16,24.105l-.465.245L7.44,28.606l1.546-9.014.088-.518L8.7,18.707,2.149,12.323,11.2,11.008l.52-.076.232-.471L16,2.26M16,0,11.056,10.018,0,11.625l8,7.8L6.111,30.434,16,25.235l9.889,5.2L24,19.423l8-7.8L20.944,10.018,16,0Z" fill="#eaad25"/><polygon points="52 24.671 42.775 29.52 44.537 19.248 37.075 11.974 47.388 10.476 52 1.13 56.612 10.476 66.925 11.974 59.463 19.248 61.225 29.52 52 24.671" fill="url(#b)"/><path d="M52,2.26l4.048,8.2.232.471.52.076,9.051,1.315L59.3,18.707l-.376.367.088.518,1.546,9.014L52.465,24.35,52,24.105l-.465.245L43.44,28.606l1.546-9.014.088-.518-.376-.367-6.549-6.384L47.2,11.008l.52-.076.232-.471L52,2.26M52,0,47.056,10.018,36,11.625l8,7.8L42.111,30.434,52,25.235l9.889,5.2L60,19.423l8-7.8L56.944,10.018,52,0Z" fill="#eaad25"/><polygon points="88 24.671 78.775 29.52 80.537 19.248 73.075 11.974 83.388 10.476 88 1.13 92.612 10.476 102.925 11.974 95.463 19.248 97.225 29.52 88 24.671" fill="url(#c)"/><path d="M88,2.26l4.048,8.2.232.471.52.076,9.051,1.315L95.3,18.707l-.376.367.088.518,1.546,9.014L88.465,24.35,88,24.105l-.465.245L79.44,28.606l1.546-9.014.088-.518-.376-.367-6.549-6.384L83.2,11.008l.52-.076.232-.471L88,2.26M88,0,83.056,10.018,72,11.625l8,7.8L78.111,30.434,88,25.235l9.889,5.2L96,19.423l8-7.8L92.944,10.018,88,0Z" fill="#eaad25"/><polygon points="124 24.671 114.775 29.52 116.537 19.248 109.075 11.974 119.388 10.476 124 1.13 128.612 10.476 138.925 11.974 131.463 19.248 133.225 29.52 124 24.671" fill="url(#d)"/><path d="M124,2.26l4.048,8.2.232.471.52.076,9.051,1.315L131.3,18.707l-.376.367.088.518,1.546,9.014-8.095-4.256L124,24.105l-.465.245-8.095,4.256,1.546-9.014.088-.518-.376-.367-6.549-6.384,9.051-1.315.52-.076.232-.471L124,2.26M124,0l-4.944,10.018L108,11.625l8,7.8-1.889,11.011,9.889-5.2,9.889,5.2L132,19.423l8-7.8-11.056-1.607L124,0Z" fill="#eaad25"/><polygon points="160 24.671 150.775 29.52 152.537 19.248 145.075 11.974 155.388 10.476 160 1.13 164.612 10.476 174.925 11.974 167.463 19.248 169.225 29.52 160 24.671" fill="url(#e)"/><path d="M160,2.26l4.048,8.2.232.471.52.076,9.051,1.315L167.3,18.707l-.376.367.088.518,1.546,9.014-8.095-4.256L160,24.105l-.465.245-8.095,4.256,1.546-9.014.088-.518-.376-.367-6.549-6.384,9.051-1.315.52-.076.232-.471L160,2.26M160,0l-4.944,10.018L144,11.625l8,7.8-1.889,11.011,9.889-5.2,9.889,5.2L168,19.423l8-7.8-11.056-1.607L160,0Z" fill="#eaad25"/></svg>