<svg xmlns="http://www.w3.org/2000/svg" xmlns:xlink="http://www.w3.org/1999/xlink" width="128" height="24" viewBox="0 0 128 24"><defs><linearGradient id="a" x1="12" y1="1.13" x2="12" y2="21.911" gradientUnits="userSpaceOnUse"><stop offset="0" stop-color="#fbcf3a"/><stop offset="1" stop-color="#f9bf04"/></linearGradient><linearGradient id="b" x1="38" y1="1.13" x2="38" y2="21.911" xlink:href="#a"/><linearGradient id="c" x1="64" y1="1.13" x2="64" y2="21.911" xlink:href="#a"/><linearGradient id="d" x1="90" y1="1.13" x2="90" y2="21.911" xlink:href="#a"/><linearGradient id="e" x1="116" y1="1.13" x2="116" y2="21.911" xlink:href="#a"/></defs><title>icon-stars-24</title><polygon points="12 18.362 5.248 21.911 6.537 14.393 1.074 9.067 8.624 7.971 12 1.13 15.376 7.971 22.926 9.067 17.463 14.393 18.752 21.911 12 18.362" fill="url(#a)"/><path d="M12,2.26l2.811,5.7.233.472.52.075,6.287.914L17.3,13.851l-.376.367.088.518L18.088,21l-5.623-2.956L12,17.8l-.465.244L5.912,21l1.074-6.261.088-.518L6.7,13.851,2.149,9.417,8.436,8.5l.52-.075.233-.472L12,2.26M12,0,8.292,7.514,0,8.719l6,5.848L4.584,22.825,12,18.926l7.416,3.9L18,14.567l6-5.848-8.292-1.2L12,0Z" fill="#eaad25"/><polygon points="38 18.362 31.248 21.911 32.537 14.393 27.074 9.067 34.624 7.971 38 1.13 41.376 7.971 48.926 9.067 43.463 14.393 44.752 21.911 38 18.362" fill="url(#b)"/><path d="M38,2.26l2.811,5.7.233.472.52.075,6.287.914L43.3,13.851l-.376.367.088.518L44.088,21l-5.623-2.956L38,17.8l-.465.244L31.912,21l1.074-6.261.088-.518-.376-.367L28.149,9.417,34.436,8.5l.52-.075.233-.472L38,2.26M38,0,34.292,7.514,26,8.719l6,5.848-1.416,8.258L38,18.926l7.416,3.9L44,14.567l6-5.848-8.292-1.2L38,0Z" fill="#eaad25"/><polygon points="64 18.362 57.248 21.911 58.537 14.393 53.074 9.067 60.624 7.971 64 1.13 67.376 7.971 74.926 9.067 69.463 14.393 70.752 21.911 64 18.362" fill="url(#c)"/><path d="M64,2.26l2.811,5.7.233.472.52.075,6.287.914L69.3,13.851l-.376.367.088.518L70.088,21l-5.623-2.956L64,17.8l-.465.244L57.912,21l1.074-6.261.088-.518-.376-.367L54.149,9.417,60.436,8.5l.52-.075.233-.472L64,2.26M64,0,60.292,7.514,52,8.719l6,5.848-1.416,8.258L64,18.926l7.416,3.9L70,14.567l6-5.848-8.292-1.2L64,0Z" fill="#eaad25"/><polygon points="90 18.362 83.248 21.911 84.537 14.393 79.074 9.067 86.624 7.971 90 1.13 93.376 7.971 100.926 9.067 95.463 14.393 96.752 21.911 90 18.362" fill="url(#d)"/><path d="M90,2.26l2.811,5.7.233.472.52.075,6.287.914L95.3,13.851l-.376.367.088.518L96.088,21l-5.623-2.956L90,17.8l-.465.244L83.912,21l1.074-6.261.088-.518-.376-.367L80.149,9.417,86.436,8.5l.52-.075.233-.472L90,2.26M90,0,86.292,7.514,78,8.719l6,5.848-1.416,8.258L90,18.926l7.416,3.9L96,14.567l6-5.848-8.292-1.2L90,0Z" fill="#eaad25"/><polygon points="116 18.362 109.248 21.911 110.537 14.393 105.074 9.067 112.624 7.971 116 1.13 119.376 7.971 126.926 9.067 121.463 14.393 122.752 21.911 116 18.362" fill="url(#e)"/><path d="M116,2.26l2.811,5.7.233.472.52.075,6.287.914L121.3,13.851l-.376.367.088.518L122.088,21l-5.623-2.956L116,17.8l-.465.244L109.912,21l1.074-6.261.088-.518-.376-.367-4.549-4.434,6.287-.914.52-.075.233-.472L116,2.26M116,0l-3.708,7.514L104,8.719l6,5.848-1.416,8.258,7.416-3.9,7.416,3.9L122,14.567l6-5.848-8.292-1.2L116,0Z" fill="#eaad25"/></svg>